HIERARCHY
ROOT Hips
{
  OFFSET 279.157 85.6768 304.565
  CHANNELS 6 Xposition Yposition Zposition Zrotation Xrotation Yrotation
  JOINT LeftUpLeg
  {
    OFFSET 8.64259 1.95398 -2.38835
    CHANNELS 3 Zrotation Xrotation Yrotation
    JOINT LeftLeg
    {
      OFFSET 43.7702 0 0
      CHANNELS 3 Zrotation Xrotation Yrotation
      JOINT LeftFoot
      {
        OFFSET 40.6238 0 0
        CHANNELS 3 Zrotation Xrotation Yrotation
        JOINT LeftToeBase
        {
          OFFSET 12.7242 0 0
          CHANNELS 3 Zrotation Xrotation Yrotation
          End Site
          {
            OFFSET 0 0 0
          }
        }
      }
    }
  }
  JOINT RightUpLeg
  {
    OFFSET -8.2249 1.95398 -2.59336
    CHANNELS 3 Zrotation Xrotation Yrotation
    JOINT RightLeg
    {
      OFFSET 43.5653 0 0
      CHANNELS 3 Zrotation Xrotation Yrotation
      JOINT RightFoot
      {
        OFFSET 40.6238 0 0
        CHANNELS 3 Zrotation Xrotation Yrotation
        JOINT RightToeBase
        {
          OFFSET 12.7242 0 0
          CHANNELS 3 Zrotation Xrotation Yrotation
          End Site
          {
            OFFSET 0 0 0
          }
        }
      }
    }
  }
  JOINT Spine
  {
    OFFSET 0.165834 0.87714 6.61349
    CHANNELS 3 Zrotation Xrotation Yrotation
    JOINT Spine1
    {
      OFFSET 7.38963 1.71661e-005 0
      CHANNELS 3 Zrotation Xrotation Yrotation
      JOINT Spine2
      {
        OFFSET 11.9445 1.14441e-005 0
        CHANNELS 3 Zrotation Xrotation Yrotation
        JOINT Spine3
        {
          OFFSET 14.7254 4.19617e-005 0
          CHANNELS 3 Zrotation Xrotation Yrotation
          JOINT Spine4
          {
            OFFSET 10.9679 0 0
            CHANNELS 3 Zrotation Xrotation Yrotation
            JOINT RightShoulder
            {
              OFFSET 2.46616 -1.6653 3.69651
              CHANNELS 3 Zrotation Xrotation Yrotation
              JOINT RightArm
              {
                OFFSET 13.0012 0 0
                CHANNELS 3 Zrotation Xrotation Yrotation
                JOINT RightForeArm
                {
                  OFFSET 28.7848 1.52588e-005 0
                  CHANNELS 3 Zrotation Xrotation Yrotation
                  JOINT RightHand
                  {
                    OFFSET 26.5688 1.52588e-005 0
                    CHANNELS 3 Zrotation Xrotation Yrotation
                    End Site
                    {
                      OFFSET 0 0 0
                    }
                  }
                }
              }
            }
            JOINT LeftShoulder
            {
              OFFSET 2.38034 -1.29275 -3.7523
              CHANNELS 3 Zrotation Xrotation Yrotation
              JOINT LeftArm
              {
                OFFSET 16.3182 6.10351e-005 0
                CHANNELS 3 Zrotation Xrotation Yrotation
                JOINT LeftForeArm
                {
                  OFFSET 27.0901 0 0
                  CHANNELS 3 Zrotation Xrotation Yrotation
                  JOINT LeftHand
                  {
                    OFFSET 24.5451 1.52588e-005 0
                    CHANNELS 3 Zrotation Xrotation Yrotation
                    End Site
                    {
                      OFFSET 0 0 0
                    }
                  }
                }
              }
            }
            JOINT Neck
            {
              OFFSET 5.0226 -0.0266342 0
              CHANNELS 3 Zrotation Xrotation Yrotation
              JOINT Head
              {
                OFFSET 6.69364 2.86102e-005 0
                CHANNELS 3 Zrotation Xrotation Yrotation
                End Site
                {
                  OFFSET 0 0 0
                }
              }
            }
          }
        }
      }
    }
  }
}
MOTION
Frames:	9
Frame Time:	0.0416667
-249.025 63.788 -228.968 117.824 -39.2844 126.563 167.739 55.9327 137.641 -111.066 15.4097 7.18703 83.5604 20.8102 4.13771 41.8418 6.2414 6.72934 138.133 38.6353 94.924 -105.86 -12.7949 -2.90857 86.8403 -18.5506 -3.4022 35.4679 -2.50628 3.5614 1.62922 16.7466 -92.635 -6.60308 2.39519 -4.74642 -18.2809 2.18425 -4.84694 -40.7851 3.71002 -3.80898 -20.7724 3.71001 -3.80899 69.7328 -33.5696 -140.995 -26.0073 -10.241 -46.325 13.4905 -46.1089 0.0104892 -44.4458 -8.82635 12.0062 -93.5412 -30.1883 66.7201 -3.00227 4.83637 -73.576 -6.58862 56.392 -2.83417 20.8602 3.67418 13.7959 35.4181 -7.06811 -1.35888 -5.23848 -5.97078 -3.71269 
-248.886 63.6614 -228.921 117.898 -39.0683 126.717 167.498 55.7781 137.825 -111.303 15.122 7.16167 84.0333 21.0684 3.88843 41.7242 6.17822 6.66063 137.976 38.4858 94.6278 -106.044 -13.087 -2.95033 86.9223 -18.6418 -3.46863 35.6579 -2.56232 3.53125 1.63808 16.7695 -92.6399 -6.64868 2.41195 -4.75174 -18.3265 2.20073 -4.853 -40.8309 3.7276 -3.80904 -20.8182 3.72758 -3.80905 69.6263 -33.7485 -141.033 -26.386 -10.5571 -46.2796 12.6772 -45.4039 -0.810907 -43.3504 -8.44005 11.652 -93.2799 -29.7279 67.0101 -3.58926 4.89636 -73.7193 -6.70614 57.1425 -2.47882 20.864 3.6515 13.6873 35.086 -6.67327 -1.91343 -5.50777 -5.38859 -2.5025 
-248.865 63.4728 -228.947 117.347 -39.2141 126.514 166.573 56.2507 138.431 -111.58 15.0444 7.12466 83.9672 21.0336 3.97803 41.9301 6.2762 6.93581 137.484 38.9214 95.1823 -106.306 -13.1085 -2.93792 86.7463 -18.5904 -3.72842 36.0117 -2.68618 3.81127 1.64933 16.7205 -92.6624 -6.55034 2.42561 -4.79686 -18.2282 2.21239 -4.89867 -40.7319 3.75414 -3.84801 -20.7193 3.75414 -3.84803 69.4376 -33.9028 -141.219 -26.8563 -10.864 -46.1459 12.4102 -45.0345 -1.1871 -43.3789 -8.43465 11.6937 -93.4099 -29.7734 66.786 -4.06985 4.91271 -73.5457 -7.10536 57.3545 -1.74125 21.712 3.83092 13.8484 34.9312 -6.28979 -1.87331 -5.72903 -5.05354 -2.15007 
-248.969 63.2435 -228.994 116.251 -39.6915 126.082 164.939 57.2207 139.669 -111.778 14.6551 7.07508 83.9077 20.7876 3.82674 42.0247 6.33823 6.8575 136.859 39.711 96.4965 -106.442 -12.6635 -2.85519 86.6708 -18.4244 -3.47055 35.2562 -2.45815 3.81476 1.67465 16.6316 -92.6799 -6.37198 2.46727 -4.83195 -18.0499 2.25249 -4.93556 -40.5537 3.8044 -3.86902 -20.541 3.80441 -3.86902 69.652 -33.8067 -140.949 -26.245 -10.5106 -46.5171 12.4385 -45.634 -0.869873 -43.0694 -8.43623 11.7618 -93.3243 -29.5034 66.83 -4.40523 4.97159 -73.2422 -6.31916 57.2173 -2.51256 21.4131 3.77559 13.8477 34.5696 -5.74809 -1.60578 -5.39641 -4.66459 -2.40693 
-249.189 62.904 -228.916 114.983 -40.2253 125.579 162.647 58.2344 141.597 -112.049 14.3304 7.02135 84.0791 20.6049 3.54073 41.8781 6.23698 7.03843 136.511 40.5378 98.6014 -106.891 -11.0381 -2.69858 87.0965 -18.7911 -3.94125 35.6515 -2.61754 4.47095 1.72555 16.5519 -92.7088 -6.21095 2.55604 -4.88231 -17.889 2.33895 -4.98975 -40.3934 3.90419 -3.89041 -20.3808 3.90417 -3.8904 69.8219 -33.8432 -140.652 -26.3785 -10.2082 -47.0751 12.8678 -45.3852 0.00986224 -43.7294 -8.41602 11.3639 -93.3089 -30.086 67.109 -3.12341 4.91154 -73.6212 -7.41537 55.1672 -1.94074 25.8039 4.70678 14.581 35.3041 -5.56096 -1.44336 -5.72503 -4.53305 -2.52483 
-249.27 62.5523 -229.108 113.241 -41.0815 124.94 159.799 59.743 143.923 -112.462 13.7022 6.9462 84.0256 20.2543 3.10845 41.7794 6.1513 7.36316 135.245 41.894 100.658 -107.017 -11.1417 -2.63095 86.479 -18.2691 -3.57209 36.724 -2.90111 3.78013 1.78474 16.4032 -92.7293 -5.91186 2.66159 -4.92074 -17.5898 2.44271 -5.03277 -40.0957 4.01638 -3.89535 -20.0831 4.01639 -3.89535 69.9014 -33.6734 -140.649 -27.1326 -10.5638 -47.6743 13.1079 -44.614 0.00990303 -43.4186 -8.19949 11.0789 -93.1879 -30.0898 67.3354 -3.19132 5.0383 -73.6482 -7.9661 53.708 -1.33693 28.5047 5.06077 14.1297 35.445 -5.29079 -1.21064 -5.62933 -4.37332 -2.73058 
-249.366 62.1382 -229.291 111.388 -42.1099 123.968 157.138 61.4367 146.219 -112.868 13.2168 6.85605 83.9809 20.1177 3.14121 41.89 6.23268 7.17443 133.888 43.5047 102.958 -107.452 -10.7588 -2.57413 86.476 -18.3109 -3.76055 36.3268 -2.82865 4.65267 1.86198 16.2455 -92.7172 -5.59373 2.81284 -4.89231 -17.2713 2.59507 -5.01101 -39.7814 4.15214 -3.82266 -19.7687 4.15213 -3.82266 69.8236 -33.8502 -140.644 -27.6194 -10.7139 -47.4093 13.0318 -44.3358 0.0550769 -44.3075 -8.38593 11.1624 -93.1384 -30.3799 67.5503 -2.49048 4.92593 -74.0946 -8.15801 53.881 -1.4108 27.7611 4.95205 14.2078 36.0954 -5.33221 -1.26399 -5.80068 -4.37403 -2.69994 
-249.486 61.6242 -229.487 109.679 -43.0665 123.077 154.007 63.0619 149.065 -113.445 12.7613 6.76103 83.8604 19.8256 2.99993 41.9049 6.2385 7.21076 132.435 45.141 105.171 -107.918 -10.6037 -2.57379 86.2092 -17.9558 -3.24556 34.9494 -2.34081 3.48363 1.91229 16.1135 -92.7082 -5.32803 2.91101 -4.87487 -17.0053 2.69391 -4.99791 -39.5182 4.24055 -3.77646 -19.5056 4.24054 -3.77647 69.7965 -33.8023 -140.722 -27.6143 -10.5293 -47.1178 11.8721 -44.7688 -0.472251 -42.8928 -8.02411 10.8311 -93.2226 -30.7774 67.5593 -2.19462 4.72571 -74.067 -7.74162 54.0681 -1.84758 27.7446 4.88746 13.9845 36.2666 -5.22483 -1.01278 -5.49244 -4.38367 -2.91052 
-249.579 61.1656 -229.74 107.439 -44.3108 121.877 150.187 64.9636 152.784 -113.901 12.3815 6.67157 83.8881 19.6679 2.72585 41.7917 6.15035 7.46069 130.46 46.9557 108.058 -108.351 -10.4973 -2.56455 85.9433 -17.6143 -2.90331 37.8057 -3.20018 3.12923 1.98188 15.9174 -92.6641 -4.93365 3.05658 -4.79131 -16.6103 2.84301 -4.92086 -39.1287 4.35436 -3.6528 -19.1161 4.35434 -3.65282 69.8958 -33.7796 -140.581 -27.5256 -10.6189 -47.1502 14.6192 -45.6468 -2.17711 -45.2298 -9.86082 14.5493 -92.8676 -30.0034 67.8987 -2.95643 4.81952 -73.8211 -6.83239 54.2936 -2.63897 27.3517 4.91498 14.3353 36.2777 -5.31087 -1.51064 -4.52474 -4.27173 -2.50435 
